<?xml version="1.0" encoding="utf-8"?>
<!-- Generator: Adobe Illustrator 26.2.1, SVG Export Plug-In . SVG Version: 6.00 Build 0)  -->
<svg version="1.1" id="Laag_1" xmlns="http://www.w3.org/2000/svg" xmlns:xlink="http://www.w3.org/1999/xlink" x="0px" y="0px"
	 viewBox="0 0 48 48" style="enable-background:new 0 0 48 48;" xml:space="preserve">
<style type="text/css">
	.st0{fill:#E20074;}
</style>
<path class="st0" d="M27.9,43.8c-0.4,0.2-0.8,0.2-1.2,0c-0.4-0.1-0.7-0.4-0.9-0.8l-3.5-6.9c-0.2-0.4-0.2-0.8-0.1-1.2
	c0.1-0.4,0.4-0.7,0.7-0.9s0.8-0.2,1.2,0c0.4,0.1,0.7,0.4,0.9,0.8l3.5,6.9c0.2,0.4,0.2,0.8,0.1,1.2C28.5,43.4,28.3,43.7,27.9,43.8z
	 M39.9,43.8c-0.4,0.2-0.8,0.2-1.2,0c-0.4-0.1-0.7-0.4-0.9-0.8l-3.5-6.9c-0.2-0.4-0.2-0.8-0.1-1.2c0.1-0.4,0.4-0.7,0.7-0.9
	c0.4-0.2,0.8-0.2,1.2,0s0.7,0.4,0.9,0.8l3.5,6.9c0.2,0.4,0.2,0.8,0.1,1.2C40.5,43.3,40.3,43.6,39.9,43.8z M15.9,43.8
	c-0.4,0.2-0.8,0.2-1.2,0.1c-0.4-0.1-0.7-0.4-0.9-0.7l-3.4-6.9c-0.2-0.4-0.2-0.8-0.1-1.2c0.1-0.4,0.4-0.7,0.8-0.9
	c0.4-0.2,0.8-0.2,1.2-0.1s0.7,0.4,0.9,0.7l3.5,7c0.2,0.4,0.2,0.8,0,1.2S16.3,43.6,15.9,43.8z M14.5,31c-2.9,0-5.4-1-7.4-3.1
	S4,23.4,4,20.5c0-2.6,0.9-5,2.8-7.1s4.2-3.2,7-3.4c1.1-1.9,2.5-3.3,4.2-4.4S21.8,4,24,4c3,0,5.6,1,7.6,2.9s3.3,4.3,3.8,7.1
	c2.6,0.1,4.7,1,6.3,2.7s2.3,3.6,2.3,5.8c0,2.3-0.8,4.3-2.5,6s-3.7,2.5-6,2.5H14.5z M14.5,28h21c1.5,0,2.8-0.5,3.9-1.6S41,24,41,22.5
	c0-1.5-0.5-2.8-1.6-3.9C38.3,17.5,37,17,35.5,17h-3v-1.5c0-2.4-0.8-4.4-2.5-6C28.4,7.8,26.4,7,24,7c-1.7,0-3.3,0.5-4.7,1.4
	s-2.5,2.2-3.1,3.7L15.8,13h-1.4c-2.1,0.1-3.8,0.8-5.2,2.3S7,18.5,7,20.5c0,2.1,0.7,3.8,2.2,5.3C10.7,27.3,12.4,28,14.5,28z"/>
</svg>
