<?xml version="1.0" encoding="UTF-8"?><svg xmlns="http://www.w3.org/2000/svg" xmlns:xlink="http://www.w3.org/1999/xlink" viewBox="0 0 346.84 329.4"><defs><style>.e{stroke:#4f2944;stroke-dasharray:0 0 0 0 13.07 5.87 0 0;stroke-linecap:round;stroke-linejoin:round;stroke-width:4.27px;}.e,.f{fill:none;}.f{clip-rule:evenodd;}.g{fill:#e20074;}.g,.h,.i{fill-rule:evenodd;}.h{fill:#f49ac1;}.i{fill:#edbcd3;}.j{clip-path:url(#d);}</style><clipPath id="d"><path class="f" d="M164.7,15.93c82.11,0,148.77,66.66,148.77,148.77s-66.66,148.77-148.77,148.77S15.93,246.81,15.93,164.7,82.59,15.93,164.7,15.93h0Z"/></clipPath></defs><g id="a"/><g id="b"><g id="c"><g><path class="g" d="M164.7,0c90.9,0,164.7,73.8,164.7,164.7s-73.8,164.7-164.7,164.7S0,255.6,0,164.7,73.8,0,164.7,0h0Z"/><path class="h" d="M164.7,15.93c82.11,0,148.77,66.66,148.77,148.77s-66.66,148.77-148.77,148.77S15.93,246.81,15.93,164.7,82.59,15.93,164.7,15.93h0Z"/></g><g class="j"><polygon class="i" points="7.97 211.99 312.89 85.88 321.43 119.23 23.9 247.38 7.97 211.99 7.97 211.99"/><polygon class="i" points="33.37 270.22 338.29 144.12 346.84 177.47 49.3 305.61 33.37 270.22 33.37 270.22"/></g><path class="e" d="M164.7,15.93c82.11,0,148.77,66.66,148.77,148.77s-66.66,148.77-148.77,148.77S15.93,246.81,15.93,164.7,82.59,15.93,164.7,15.93h0Z"/></g></g></svg>