<?xml version="1.0" encoding="utf-8"?>
<!-- Generator: Adobe Illustrator 26.2.1, SVG Export Plug-In . SVG Version: 6.00 Build 0)  -->
<svg version="1.1" id="Laag_1" xmlns="http://www.w3.org/2000/svg" xmlns:xlink="http://www.w3.org/1999/xlink" x="0px" y="0px"
	 viewBox="0 0 48 48" style="enable-background:new 0 0 48 48;" xml:space="preserve">
<style type="text/css">
	.st0{fill:#E20074;}
</style>
<path class="st0" d="M24,9.5c-0.4,0-0.8-0.1-1.1-0.4c-0.3-0.3-0.4-0.6-0.4-1.1V3.5c0-0.4,0.1-0.8,0.4-1.1C23.2,2.1,23.6,2,24,2
	s0.8,0.1,1.1,0.4c0.3,0.3,0.4,0.6,0.4,1.1V8c0,0.4-0.1,0.8-0.4,1.1C24.8,9.4,24.4,9.5,24,9.5z M34.2,13.8c-0.3-0.3-0.5-0.7-0.5-1.1
	c0-0.4,0.2-0.8,0.5-1.1l3.2-3.2C37.7,8.2,38.1,8,38.5,8s0.8,0.2,1.1,0.4C39.9,8.8,40,9.1,40,9.5s-0.1,0.8-0.5,1.1l-3.2,3.2
	c-0.3,0.3-0.7,0.4-1,0.4C34.9,14.2,34.5,14.1,34.2,13.8z M40,25.5c-0.4,0-0.8-0.1-1.1-0.4c-0.3-0.3-0.4-0.6-0.4-1.1s0.1-0.8,0.4-1.1
	c0.3-0.3,0.6-0.4,1.1-0.4h4.5c0.4,0,0.8,0.1,1.1,0.4c0.3,0.3,0.4,0.6,0.4,1.1s-0.1,0.8-0.4,1.1c-0.3,0.3-0.6,0.4-1.1,0.4H40z M24,46
	c-0.4,0-0.8-0.1-1.1-0.4c-0.3-0.3-0.4-0.6-0.4-1.1V40c0-0.4,0.1-0.8,0.4-1.1c0.3-0.3,0.6-0.4,1.1-0.4s0.8,0.1,1.1,0.4
	c0.3,0.3,0.4,0.6,0.4,1.1v4.5c0,0.4-0.1,0.8-0.4,1.1C24.8,45.9,24.4,46,24,46z M11.6,13.8l-3.2-3.1C8.2,10.3,8,9.9,8,9.5
	s0.2-0.8,0.4-1.1C8.8,8.2,9.1,8,9.5,8s0.8,0.2,1.1,0.4l3.2,3.2c0.3,0.3,0.4,0.6,0.4,1.1c0,0.4-0.1,0.8-0.4,1.1
	c-0.3,0.3-0.7,0.4-1.1,0.4C12.3,14.1,11.9,14,11.6,13.8z M37.4,39.5l-3.2-3.2c-0.3-0.3-0.5-0.7-0.5-1c0-0.4,0.2-0.8,0.5-1
	c0.3-0.3,0.6-0.4,1-0.4c0.4,0,0.8,0.1,1.1,0.4l3.2,3.2c0.3,0.3,0.4,0.7,0.4,1.1c0,0.4-0.2,0.8-0.4,1.1c-0.3,0.3-0.7,0.5-1.1,0.5
	C38.1,40,37.7,39.9,37.4,39.5z M3.5,25.5c-0.4,0-0.8-0.1-1.1-0.4C2.1,24.8,2,24.4,2,24s0.1-0.8,0.4-1.1c0.3-0.3,0.6-0.4,1.1-0.4H8
	c0.4,0,0.8,0.1,1.1,0.4c0.3,0.3,0.4,0.6,0.4,1.1s-0.1,0.8-0.4,1.1c-0.3,0.3-0.6,0.4-1.1,0.4H3.5z M8.4,39.5c-0.3-0.3-0.4-0.7-0.4-1
	s0.2-0.8,0.4-1l3.2-3.2c0.3-0.3,0.6-0.4,1-0.4s0.8,0.1,1.1,0.4c0.3,0.3,0.5,0.7,0.4,1.1c0,0.4-0.1,0.8-0.4,1.1l-3.2,3.2
	C10.3,39.9,9.9,40,9.5,40C9.1,40,8.7,39.9,8.4,39.5z M24,36c-3.3,0-6.2-1.2-8.5-3.5S12,27.3,12,24s1.2-6.2,3.5-8.5S20.7,12,24,12
	s6.2,1.2,8.5,3.5S36,20.7,36,24s-1.2,6.2-3.5,8.5S27.3,36,24,36z M24,33c2.5,0,4.6-0.9,6.4-2.6S33,26.5,33,24s-0.9-4.6-2.6-6.4
	S26.5,15,24,15s-4.6,0.9-6.4,2.6S15,21.5,15,24s0.9,4.6,2.6,6.4S21.5,33,24,33z"/>
</svg>
