<?xml version="1.0" encoding="utf-8"?>
<!-- Generator: Adobe Illustrator 26.2.1, SVG Export Plug-In . SVG Version: 6.00 Build 0)  -->
<svg version="1.1" id="Laag_1" xmlns="http://www.w3.org/2000/svg" xmlns:xlink="http://www.w3.org/1999/xlink" x="0px" y="0px"
	 viewBox="0 0 48 48" style="enable-background:new 0 0 48 48;" xml:space="preserve">
<style type="text/css">
	.st0{fill:#E20074;}
</style>
<path class="st0" d="M23.2,40c-1.8,0-3.2-0.5-4.3-1.4s-1.6-2.4-1.6-4.2h3.4c0,0.9,0.2,1.5,0.6,2s1,0.7,1.9,0.7
	c0.9,0,1.5-0.2,1.9-0.6s0.6-1.1,0.6-2s-0.2-1.7-0.6-2.1c-0.4-0.4-1-0.7-1.9-0.7H4v-3h19.2c1.8,0,3.2,0.5,4.1,1.4
	c0.9,0.9,1.4,2.4,1.4,4.4c0,1.9-0.5,3.3-1.4,4.2C26.4,39.5,25.1,40,23.2,40z M4,19.6v-3h27.4c1.2,0,2.1-0.3,2.7-0.9
	c0.6-0.6,0.8-1.6,0.8-2.9s-0.3-2.3-0.8-2.9S32.6,9,31.4,9c-1.3,0-2.2,0.3-2.8,1c-0.6,0.7-0.9,1.5-0.9,2.6h-3c0-1.9,0.6-3.5,1.8-4.8
	C27.7,6.6,29.3,6,31.4,6c2,0,3.6,0.6,4.8,1.8c1.2,1.2,1.8,2.9,1.8,5s-0.6,3.8-1.8,5c-1.2,1.2-2.8,1.8-4.8,1.8H4z M37.6,36.1v-3
	c1.2,0,2-0.3,2.6-1c0.6-0.6,0.8-1.6,0.8-2.8c0-1.3-0.3-2.2-0.9-2.8c-0.6-0.6-1.5-0.9-2.7-0.9H4v-3h33.4c2.1,0,3.7,0.6,4.8,1.8
	c1.2,1.2,1.8,2.8,1.8,4.9c0,2.1-0.5,3.8-1.7,5C41.2,35.5,39.7,36.1,37.6,36.1z"/>
</svg>
